<svg xmlns="http://www.w3.org/2000/svg" width="1024" height="1024" viewBox="0 0 1024 1024">
<g>
<path d="M 717.38 859.19 L 706.50 861.50 L 517.00 861.63 C412.77,861.70 324.28,861.38 320.34,860.92 C250.09,852.63 191.55,800.93 174.92,732.50 C174.34,730.12 173.83,728.09 173.38,726.05 C170.00,710.69 170.00,694.59 170.00,523.54 L 170.00 508.29 C170.00,378.99 170.35,309.64 171.05,303.21 C173.15,283.74 179.85,261.65 188.71,245.00 C199.83,224.08 221.43,199.61 241.00,185.73 C258.60,173.25 283.54,162.31 304.16,158.03 C325.53,153.60 322.23,153.68 499.50,153.27 C672.43,152.87 695.28,153.22 715.00,156.57 C736.49,160.23 764.97,172.12 783.51,185.17 C788.46,188.65 797.39,196.23 803.37,202.00 C830.16,227.88 845.48,255.76 852.28,291.00 L 854.50 302.50 L 854.50 507.00 C854.50,697.25 854.38,712.21 852.75,721.62 C847.57,751.60 832.80,782.51 813.41,804.00 C787.12,833.13 756.08,850.97 717.38,859.19 ZM 371.25 697.45 C389.45,702.36 409.52,693.62 417.93,677.13 C418.54,675.95 419.07,674.92 419.54,673.87 C423.00,666.11 423.00,656.80 423.00,569.45 L 423.00 565.20 C423.00,472.19 423.07,468.46 425.04,458.66 C428.92,439.32 440.46,420.09 455.74,407.48 C464.80,400.01 480.13,392.53 491.50,390.02 C502.65,387.57 519.06,387.38 529.79,389.58 C561.15,396.01 587.67,420.50 596.31,451.00 C599.33,461.66 600.00,472.34 600.00,509.60 C600.00,544.65 600.13,547.45 602.04,553.11 C605.95,564.73 612.46,571.95 623.88,577.36 C629.93,580.23 631.36,580.50 640.50,580.50 C649.67,580.50 651.06,580.23 657.22,577.32 C670.00,571.26 678.59,560.21 681.07,546.64 C681.77,542.80 682.00,525.20 681.73,495.64 C681.36,454.00 681.16,449.76 679.18,440.93 C674.06,418.09 663.80,394.62 651.25,377.03 C639.00,359.85 617.65,340.31 599.67,329.80 C548.39,299.86 486.00,298.10 432.91,325.10 C401.43,341.11 374.53,368.09 359.07,399.16 C351.74,413.88 347.23,426.68 343.80,442.50 C341.66,452.34 341.62,454.21 341.28,556.40 C341.03,627.03 341.26,661.93 341.98,665.40 C343.65,673.44 347.67,681.05 353.31,686.83 C359.09,692.77 363.47,695.36 371.25,697.45 ZM 631.00 697.33 C632.38,697.62 637.40,697.72 642.17,697.56 C653.26,697.18 661.40,693.62 670.04,685.38 C692.27,664.18 686.23,627.49 658.26,613.81 C651.79,610.64 651.01,610.50 640.00,610.53 C628.99,610.55 628.22,610.69 621.86,613.88 C594.19,627.76 587.66,663.75 608.95,685.05 C613.83,689.92 624.81,696.04 631.00,697.33 Z" fill="rgb(74,90,250)"/>
<path d="M 0.00 512.00 L 0.00 0.00 L 512.00 0.00 L 1024.00 0.00 L 1024.00 512.00 L 1024.00 1024.00 L 512.00 1024.00 L 0.00 1024.00 L 0.00 512.00 ZM 717.38 859.19 C756.08,850.97 787.12,833.13 813.41,804.00 C832.80,782.51 847.57,751.60 852.75,721.62 C854.38,712.21 854.50,697.25 854.50,507.00 L 854.50 302.50 L 852.28 291.00 C845.48,255.76 830.16,227.88 803.37,202.00 C797.39,196.23 788.46,188.65 783.51,185.17 C764.97,172.12 736.49,160.23 715.00,156.57 C695.28,153.22 672.43,152.87 499.50,153.27 C322.23,153.68 325.53,153.60 304.16,158.03 C283.54,162.31 258.60,173.25 241.00,185.73 C221.43,199.61 199.83,224.08 188.71,245.00 C179.85,261.65 173.15,283.74 171.05,303.21 C170.35,309.64 170.00,378.99 170.00,508.29 C170.00,717.60 169.87,711.72 174.92,732.50 C191.55,800.93 250.09,852.63 320.34,860.92 C324.28,861.38 412.77,861.70 517.00,861.63 L 706.50 861.50 L 717.38 859.19 ZM 371.25 697.45 C363.47,695.36 359.09,692.77 353.31,686.83 C347.67,681.05 343.65,673.44 341.98,665.40 C341.26,661.93 341.03,627.03 341.28,556.40 C341.62,454.21 341.66,452.34 343.80,442.50 C347.23,426.68 351.74,413.88 359.07,399.16 C374.53,368.09 401.43,341.11 432.91,325.10 C486.00,298.10 548.39,299.86 599.67,329.80 C617.65,340.31 639.00,359.85 651.25,377.03 C663.80,394.62 674.06,418.09 679.18,440.93 C681.16,449.76 681.36,454.00 681.73,495.64 C682.00,525.20 681.77,542.80 681.07,546.64 C678.59,560.21 670.00,571.26 657.22,577.32 C651.06,580.23 649.67,580.50 640.50,580.50 C631.36,580.50 629.93,580.23 623.88,577.36 C612.46,571.95 605.95,564.73 602.04,553.11 C600.13,547.45 600.00,544.65 600.00,509.60 C600.00,472.34 599.33,461.66 596.31,451.00 C587.67,420.50 561.15,396.01 529.79,389.58 C519.06,387.38 502.65,387.57 491.50,390.02 C480.13,392.53 464.80,400.01 455.74,407.48 C440.46,420.09 428.92,439.32 425.04,458.66 C423.07,468.46 423.00,472.19 423.00,565.20 C423.00,668.66 423.07,667.06 417.93,677.13 C409.52,693.62 389.45,702.36 371.25,697.45 ZM 631.00 697.33 C624.81,696.04 613.83,689.92 608.95,685.05 C587.66,663.75 594.19,627.76 621.86,613.88 C628.22,610.69 628.99,610.55 640.00,610.53 C651.01,610.50 651.79,610.64 658.26,613.81 C686.23,627.49 692.27,664.18 670.04,685.38 C661.40,693.62 653.26,697.18 642.17,697.56 C637.40,697.72 632.38,697.62 631.00,697.33 Z" fill="rgb(253,253,252)"/>
</g>
</svg>